<?xml version="1.0" encoding="UTF-8" standalone="no"?>
<!DOCTYPE svg PUBLIC "-//W3C//DTD SVG 1.1//EN"
 "http://www.w3.org/Graphics/SVG/1.1/DTD/svg11.dtd">
<!-- Generated by graphviz version 2.43.0 (0)
 -->
<!-- Title: %3 Pages: 1 -->
<svg width="501pt" height="188pt"
 viewBox="0.00 0.00 501.29 188.00" xmlns="http://www.w3.org/2000/svg" xmlns:xlink="http://www.w3.org/1999/xlink">
<g id="graph0" class="graph" transform="scale(1 1) rotate(0) translate(4 184)">
<title>%3</title>
<polygon fill="white" stroke="transparent" points="-4,4 -4,-184 497.29,-184 497.29,4 -4,4"/>
<!-- solucion -->
<g id="node1" class="node">
<title>solucion</title>
<ellipse fill="none" stroke="black" cx="290.05" cy="-162" rx="48.99" ry="18"/>
<text text-anchor="middle" x="290.05" y="-158.3" font-family="Times,serif" font-size="14.00">solucion</text>
</g>
<!-- maquina -->
<g id="node2" class="node">
<title>maquina</title>
<ellipse fill="none" stroke="black" cx="302.05" cy="-90" rx="50.89" ry="18"/>
<text text-anchor="middle" x="302.05" y="-86.3" font-family="Times,serif" font-size="14.00">maquina</text>
</g>
<!-- solucion&#45;&gt;maquina -->
<g id="edge1" class="edge">
<title>solucion&#45;&gt;maquina</title>
<path fill="none" stroke="red" d="M293.01,-143.7C294.34,-135.98 295.92,-126.71 297.4,-118.11"/>
<polygon fill="red" stroke="red" points="300.87,-118.55 299.11,-108.1 293.98,-117.37 300.87,-118.55"/>
</g>
<!-- parallelInterface -->
<g id="node3" class="node">
<title>parallelInterface</title>
<ellipse fill="none" stroke="black" cx="146.05" cy="-90" rx="87.99" ry="18"/>
<text text-anchor="middle" x="146.05" y="-86.3" font-family="Times,serif" font-size="14.00">parallelInterface</text>
</g>
<!-- solucion&#45;&gt;parallelInterface -->
<g id="edge2" class="edge">
<title>solucion&#45;&gt;parallelInterface</title>
<path fill="none" stroke="red" d="M261.6,-147.17C240.47,-136.9 211.32,-122.73 187.59,-111.2"/>
<polygon fill="red" stroke="red" points="188.98,-107.98 178.46,-106.76 185.92,-114.28 188.98,-107.98"/>
</g>
<!-- tarea -->
<g id="node6" class="node">
<title>tarea</title>
<ellipse fill="none" stroke="black" cx="180.05" cy="-18" rx="35.19" ry="18"/>
<text text-anchor="middle" x="180.05" y="-14.3" font-family="Times,serif" font-size="14.00">tarea</text>
</g>
<!-- maquina&#45;&gt;tarea -->
<g id="edge8" class="edge">
<title>maquina&#45;&gt;tarea</title>
<path fill="none" stroke="red" d="M276.47,-74.33C257.57,-63.48 231.72,-48.65 211.54,-37.07"/>
<polygon fill="red" stroke="red" points="213.13,-33.95 202.71,-32 209.64,-40.02 213.13,-33.95"/>
</g>
<!-- datos -->
<g id="node7" class="node">
<title>datos</title>
<ellipse fill="none" stroke="black" cx="302.05" cy="-18" rx="36.29" ry="18"/>
<text text-anchor="middle" x="302.05" y="-14.3" font-family="Times,serif" font-size="14.00">datos</text>
</g>
<!-- maquina&#45;&gt;datos -->
<g id="edge9" class="edge">
<title>maquina&#45;&gt;datos</title>
<path fill="none" stroke="red" d="M302.05,-71.7C302.05,-63.98 302.05,-54.71 302.05,-46.11"/>
<polygon fill="red" stroke="red" points="305.55,-46.1 302.05,-36.1 298.55,-46.1 305.55,-46.1"/>
</g>
<!-- parallelInterface&#45;&gt;tarea -->
<g id="edge7" class="edge">
<title>parallelInterface&#45;&gt;tarea</title>
<path fill="none" stroke="red" d="M154.28,-72.05C158.24,-63.89 163.09,-53.91 167.5,-44.82"/>
<polygon fill="red" stroke="red" points="170.67,-46.31 171.89,-35.79 164.37,-43.25 170.67,-46.31"/>
</g>
<!-- greedy_time -->
<g id="node4" class="node">
<title>greedy_time</title>
<ellipse fill="none" stroke="black" cx="425.05" cy="-162" rx="68.49" ry="18"/>
<text text-anchor="middle" x="425.05" y="-158.3" font-family="Times,serif" font-size="14.00">greedy_time</text>
</g>
<!-- greedy_time&#45;&gt;maquina -->
<g id="edge4" class="edge">
<title>greedy_time&#45;&gt;maquina</title>
<path fill="none" stroke="red" d="M397.75,-145.46C379.79,-135.24 356.11,-121.77 336.81,-110.78"/>
<polygon fill="red" stroke="red" points="338.43,-107.68 328.01,-105.77 334.96,-113.76 338.43,-107.68"/>
</g>
<!-- greedy_time&#45;&gt;parallelInterface -->
<g id="edge3" class="edge">
<title>greedy_time&#45;&gt;parallelInterface</title>
<path fill="none" stroke="red" d="M377.4,-149.05C331,-137.4 260.2,-119.64 209.14,-106.83"/>
<polygon fill="red" stroke="red" points="209.76,-103.38 199.21,-104.34 208.05,-110.17 209.76,-103.38"/>
</g>
<!-- grasp -->
<g id="node5" class="node">
<title>grasp</title>
<ellipse fill="none" stroke="black" cx="37.05" cy="-162" rx="37.09" ry="18"/>
<text text-anchor="middle" x="37.05" y="-158.3" font-family="Times,serif" font-size="14.00">grasp</text>
</g>
<!-- grasp&#45;&gt;maquina -->
<g id="edge6" class="edge">
<title>grasp&#45;&gt;maquina</title>
<path fill="none" stroke="red" d="M65.07,-149.97C70.96,-147.84 77.17,-145.74 83.05,-144 152.94,-123.32 172.44,-126.1 243.05,-108 246.83,-107.03 250.74,-105.99 254.66,-104.92"/>
<polygon fill="red" stroke="red" points="255.67,-108.27 264.37,-102.22 253.8,-101.53 255.67,-108.27"/>
</g>
<!-- grasp&#45;&gt;parallelInterface -->
<g id="edge5" class="edge">
<title>grasp&#45;&gt;parallelInterface</title>
<path fill="none" stroke="red" d="M58.58,-147.17C73.8,-137.4 94.5,-124.1 111.95,-112.9"/>
<polygon fill="red" stroke="red" points="114.21,-115.61 120.73,-107.26 110.43,-109.72 114.21,-115.61"/>
</g>
<!-- greedy_TCT -->
<g id="node8" class="node">
<title>greedy_TCT</title>
<ellipse fill="none" stroke="black" cx="158.05" cy="-162" rx="65.79" ry="18"/>
<text text-anchor="middle" x="158.05" y="-158.3" font-family="Times,serif" font-size="14.00">greedy_TCT</text>
</g>
<!-- greedy_TCT&#45;&gt;maquina -->
<g id="edge11" class="edge">
<title>greedy_TCT&#45;&gt;maquina</title>
<path fill="none" stroke="red" d="M188.94,-145.98C210.87,-135.32 240.46,-120.94 263.88,-109.55"/>
<polygon fill="red" stroke="red" points="265.7,-112.56 273.17,-105.04 262.64,-106.26 265.7,-112.56"/>
</g>
<!-- greedy_TCT&#45;&gt;parallelInterface -->
<g id="edge10" class="edge">
<title>greedy_TCT&#45;&gt;parallelInterface</title>
<path fill="none" stroke="red" d="M155.08,-143.7C153.76,-135.98 152.17,-126.71 150.69,-118.11"/>
<polygon fill="red" stroke="red" points="154.12,-117.37 148.98,-108.1 147.22,-118.55 154.12,-117.37"/>
</g>
</g>
</svg>
