<?xml version="1.0" encoding="UTF-8" standalone="no"?>
<!DOCTYPE svg PUBLIC "-//W3C//DTD SVG 1.1//EN"
 "http://www.w3.org/Graphics/SVG/1.1/DTD/svg11.dtd">
<!-- Generated by graphviz version 2.43.0 (0)
 -->
<!-- Title: %3 Pages: 1 -->
<svg width="464pt" height="476pt"
 viewBox="0.00 0.00 464.25 476.00" xmlns="http://www.w3.org/2000/svg" xmlns:xlink="http://www.w3.org/1999/xlink">
<g id="graph0" class="graph" transform="scale(1 1) rotate(0) translate(4 472)">
<title>%3</title>
<polygon fill="white" stroke="transparent" points="-4,4 -4,-472 460.25,-472 460.25,4 -4,4"/>
<!-- machine -->
<g id="node1" class="node">
<title>machine</title>
<ellipse fill="none" stroke="black" cx="317.25" cy="-90" rx="50.09" ry="18"/>
<text text-anchor="middle" x="317.25" y="-86.3" font-family="Times,serif" font-size="14.00">machine</text>
</g>
<!-- task -->
<g id="node2" class="node">
<title>task</title>
<ellipse fill="none" stroke="black" cx="278.25" cy="-18" rx="30.59" ry="18"/>
<text text-anchor="middle" x="278.25" y="-14.3" font-family="Times,serif" font-size="14.00">task</text>
</g>
<!-- machine&#45;&gt;task -->
<g id="edge1" class="edge">
<title>machine&#45;&gt;task</title>
<path fill="none" stroke="red" d="M307.81,-72.05C303.15,-63.68 297.42,-53.4 292.26,-44.13"/>
<polygon fill="red" stroke="red" points="295.26,-42.34 287.34,-35.31 289.15,-45.75 295.26,-42.34"/>
</g>
<!-- data -->
<g id="node3" class="node">
<title>data</title>
<ellipse fill="none" stroke="black" cx="407.25" cy="-18" rx="31.4" ry="18"/>
<text text-anchor="middle" x="407.25" y="-14.3" font-family="Times,serif" font-size="14.00">data</text>
</g>
<!-- machine&#45;&gt;data -->
<g id="edge2" class="edge">
<title>machine&#45;&gt;data</title>
<path fill="none" stroke="red" d="M337.23,-73.46C350.18,-63.39 367.18,-50.16 381.19,-39.27"/>
<polygon fill="red" stroke="red" points="383.72,-41.73 389.47,-32.83 379.43,-36.21 383.72,-41.73"/>
</g>
<!-- greedy_time -->
<g id="node4" class="node">
<title>greedy_time</title>
<ellipse fill="none" stroke="black" cx="210.25" cy="-306" rx="68.49" ry="18"/>
<text text-anchor="middle" x="210.25" y="-302.3" font-family="Times,serif" font-size="14.00">greedy_time</text>
</g>
<!-- greedy_time&#45;&gt;machine -->
<g id="edge4" class="edge">
<title>greedy_time&#45;&gt;machine</title>
<path fill="none" stroke="red" d="M259.32,-293.32C281.01,-285.45 304.46,-272.61 317.25,-252 342.77,-210.89 333.78,-151.77 325.28,-117.79"/>
<polygon fill="red" stroke="red" points="328.65,-116.86 322.7,-108.09 321.89,-118.66 328.65,-116.86"/>
</g>
<!-- parallelInterface -->
<g id="node5" class="node">
<title>parallelInterface</title>
<ellipse fill="none" stroke="black" cx="220.25" cy="-234" rx="87.99" ry="18"/>
<text text-anchor="middle" x="220.25" y="-230.3" font-family="Times,serif" font-size="14.00">parallelInterface</text>
</g>
<!-- greedy_time&#45;&gt;parallelInterface -->
<g id="edge3" class="edge">
<title>greedy_time&#45;&gt;parallelInterface</title>
<path fill="none" stroke="red" d="M212.72,-287.7C213.83,-279.98 215.15,-270.71 216.38,-262.11"/>
<polygon fill="red" stroke="red" points="219.86,-262.5 217.81,-252.1 212.93,-261.51 219.86,-262.5"/>
</g>
<!-- parallelInterface&#45;&gt;machine -->
<g id="edge8" class="edge">
<title>parallelInterface&#45;&gt;machine</title>
<path fill="none" stroke="red" d="M231.76,-216.15C248.68,-191.39 280.38,-144.97 300.07,-116.16"/>
<polygon fill="red" stroke="red" points="303.01,-118.06 305.76,-107.82 297.23,-114.11 303.01,-118.06"/>
</g>
<!-- parallelInterface&#45;&gt;task -->
<g id="edge7" class="edge">
<title>parallelInterface&#45;&gt;task</title>
<path fill="none" stroke="red" d="M223.53,-215.89C229.38,-186.26 242.49,-123.64 258.25,-72 260.94,-63.21 264.32,-53.78 267.55,-45.34"/>
<polygon fill="red" stroke="red" points="270.82,-46.58 271.2,-35.99 264.3,-44.03 270.82,-46.58"/>
</g>
<!-- solution -->
<g id="node6" class="node">
<title>solution</title>
<ellipse fill="none" stroke="black" cx="163.25" cy="-162" rx="48.19" ry="18"/>
<text text-anchor="middle" x="163.25" y="-158.3" font-family="Times,serif" font-size="14.00">solution</text>
</g>
<!-- parallelInterface&#45;&gt;solution -->
<g id="edge9" class="edge">
<title>parallelInterface&#45;&gt;solution</title>
<path fill="none" stroke="red" d="M206.45,-216.05C199.42,-207.42 190.74,-196.76 183.01,-187.27"/>
<polygon fill="red" stroke="red" points="185.56,-184.85 176.53,-179.31 180.13,-189.27 185.56,-184.85"/>
</g>
<!-- solution&#45;&gt;machine -->
<g id="edge5" class="edge">
<title>solution&#45;&gt;machine</title>
<path fill="none" stroke="red" d="M192.58,-147.67C216.83,-136.65 251.48,-120.9 278.1,-108.8"/>
<polygon fill="red" stroke="red" points="279.85,-111.84 287.51,-104.52 276.96,-105.47 279.85,-111.84"/>
</g>
<!-- gvns -->
<g id="node7" class="node">
<title>gvns</title>
<ellipse fill="none" stroke="black" cx="142.25" cy="-378" rx="32.49" ry="18"/>
<text text-anchor="middle" x="142.25" y="-374.3" font-family="Times,serif" font-size="14.00">gvns</text>
</g>
<!-- multiboot -->
<g id="node8" class="node">
<title>multiboot</title>
<ellipse fill="none" stroke="black" cx="68.25" cy="-306" rx="55.79" ry="18"/>
<text text-anchor="middle" x="68.25" y="-302.3" font-family="Times,serif" font-size="14.00">multiboot</text>
</g>
<!-- gvns&#45;&gt;multiboot -->
<g id="edge6" class="edge">
<title>gvns&#45;&gt;multiboot</title>
<path fill="none" stroke="red" d="M126.56,-362.15C116.77,-352.89 103.96,-340.78 92.84,-330.26"/>
<polygon fill="red" stroke="red" points="95.14,-327.62 85.47,-323.29 90.33,-332.71 95.14,-327.62"/>
</g>
<!-- multiboot&#45;&gt;machine -->
<g id="edge17" class="edge">
<title>multiboot&#45;&gt;machine</title>
<path fill="none" stroke="red" d="M44.88,-289.55C33,-280.25 19.74,-267.25 13.25,-252 6.99,-237.28 6.21,-230.37 13.25,-216 57.05,-126.7 182.14,-101.05 257.51,-93.78"/>
<polygon fill="red" stroke="red" points="258.15,-97.24 267.81,-92.87 257.54,-90.27 258.15,-97.24"/>
</g>
<!-- multiboot&#45;&gt;parallelInterface -->
<g id="edge16" class="edge">
<title>multiboot&#45;&gt;parallelInterface</title>
<path fill="none" stroke="red" d="M99.01,-290.83C121.47,-280.49 152.22,-266.33 177.13,-254.86"/>
<polygon fill="red" stroke="red" points="178.75,-257.97 186.37,-250.61 175.82,-251.61 178.75,-257.97"/>
</g>
<!-- random -->
<g id="node9" class="node">
<title>random</title>
<ellipse fill="none" stroke="black" cx="68.25" cy="-234" rx="46.29" ry="18"/>
<text text-anchor="middle" x="68.25" y="-230.3" font-family="Times,serif" font-size="14.00">random</text>
</g>
<!-- multiboot&#45;&gt;random -->
<g id="edge18" class="edge">
<title>multiboot&#45;&gt;random</title>
<path fill="none" stroke="red" d="M68.25,-287.7C68.25,-279.98 68.25,-270.71 68.25,-262.11"/>
<polygon fill="red" stroke="red" points="71.75,-262.1 68.25,-252.1 64.75,-262.1 71.75,-262.1"/>
</g>
<!-- testing -->
<g id="node10" class="node">
<title>testing</title>
<ellipse fill="none" stroke="black" cx="175.25" cy="-450" rx="43.59" ry="18"/>
<text text-anchor="middle" x="175.25" y="-446.3" font-family="Times,serif" font-size="14.00">testing</text>
</g>
<!-- testing&#45;&gt;data -->
<g id="edge10" class="edge">
<title>testing&#45;&gt;data</title>
<path fill="none" stroke="red" d="M218.24,-446.57C296.95,-439.56 456.25,-412.36 456.25,-307 456.25,-307 456.25,-307 456.25,-161 456.25,-118.31 436.22,-72.15 421.77,-44.42"/>
<polygon fill="red" stroke="red" points="424.75,-42.57 416.93,-35.41 418.58,-45.88 424.75,-42.57"/>
</g>
<!-- testing&#45;&gt;greedy_time -->
<g id="edge12" class="edge">
<title>testing&#45;&gt;greedy_time</title>
<path fill="none" stroke="red" d="M179.47,-431.87C185.47,-407.56 196.49,-362.82 203.59,-334.01"/>
<polygon fill="red" stroke="red" points="207.02,-334.74 206.02,-324.19 200.22,-333.06 207.02,-334.74"/>
</g>
<!-- testing&#45;&gt;solution -->
<g id="edge11" class="edge">
<title>testing&#45;&gt;solution</title>
<path fill="none" stroke="red" d="M143.24,-437.64C101,-420.59 29,-383.85 3.25,-324 -6.42,-301.51 9.25,-220.9 13.25,-216 35.95,-188.2 74.25,-174.96 106.46,-168.67"/>
<polygon fill="red" stroke="red" points="107.45,-172.05 116.68,-166.87 106.23,-165.16 107.45,-172.05"/>
</g>
<!-- testing&#45;&gt;gvns -->
<g id="edge15" class="edge">
<title>testing&#45;&gt;gvns</title>
<path fill="none" stroke="red" d="M167.26,-432.05C163.45,-423.97 158.81,-414.12 154.56,-405.11"/>
<polygon fill="red" stroke="red" points="157.6,-403.34 150.17,-395.79 151.27,-406.33 157.6,-403.34"/>
</g>
<!-- testing&#45;&gt;multiboot -->
<g id="edge14" class="edge">
<title>testing&#45;&gt;multiboot</title>
<path fill="none" stroke="red" d="M148.9,-435.41C133.19,-426.15 113.91,-412.58 101.25,-396 87.24,-377.66 78.69,-352.74 73.81,-333.94"/>
<polygon fill="red" stroke="red" points="77.21,-333.11 71.46,-324.2 70.4,-334.75 77.21,-333.11"/>
</g>
<!-- greedy_TCT -->
<g id="node11" class="node">
<title>greedy_TCT</title>
<ellipse fill="none" stroke="black" cx="362.25" cy="-306" rx="65.79" ry="18"/>
<text text-anchor="middle" x="362.25" y="-302.3" font-family="Times,serif" font-size="14.00">greedy_TCT</text>
</g>
<!-- testing&#45;&gt;greedy_TCT -->
<g id="edge13" class="edge">
<title>testing&#45;&gt;greedy_TCT</title>
<path fill="none" stroke="red" d="M195.26,-433.8C228.29,-408.73 294.35,-358.56 332.74,-329.41"/>
<polygon fill="red" stroke="red" points="335.11,-332.01 340.95,-323.17 330.87,-326.43 335.11,-332.01"/>
</g>
<!-- greedy_TCT&#45;&gt;machine -->
<g id="edge20" class="edge">
<title>greedy_TCT&#45;&gt;machine</title>
<path fill="none" stroke="red" d="M363.62,-287.56C365.41,-257.44 366.61,-194.09 350.25,-144 347.06,-134.21 341.69,-124.39 336.2,-115.91"/>
<polygon fill="red" stroke="red" points="339.06,-113.89 330.52,-107.61 333.28,-117.84 339.06,-113.89"/>
</g>
<!-- greedy_TCT&#45;&gt;parallelInterface -->
<g id="edge19" class="edge">
<title>greedy_TCT&#45;&gt;parallelInterface</title>
<path fill="none" stroke="red" d="M331.79,-289.98C311.31,-279.89 284.05,-266.45 261.61,-255.39"/>
<polygon fill="red" stroke="red" points="263.16,-252.25 252.64,-250.97 260.06,-258.53 263.16,-252.25"/>
</g>
</g>
</svg>
