<?xml version="1.0" encoding="UTF-8" standalone="no"?>
<!DOCTYPE svg PUBLIC "-//W3C//DTD SVG 1.1//EN"
 "http://www.w3.org/Graphics/SVG/1.1/DTD/svg11.dtd">
<!-- Generated by graphviz version 2.43.0 (0)
 -->
<!-- Title: %3 Pages: 1 -->
<svg width="579pt" height="404pt"
 viewBox="0.00 0.00 578.64 404.00" xmlns="http://www.w3.org/2000/svg" xmlns:xlink="http://www.w3.org/1999/xlink">
<g id="graph0" class="graph" transform="scale(1 1) rotate(0) translate(4 400)">
<title>%3</title>
<polygon fill="white" stroke="transparent" points="-4,4 -4,-400 574.64,-400 574.64,4 -4,4"/>
<!-- solucion -->
<g id="node1" class="node">
<title>solucion</title>
<ellipse fill="none" stroke="black" cx="210.64" cy="-162" rx="48.99" ry="18"/>
<text text-anchor="middle" x="210.64" y="-158.3" font-family="Times,serif" font-size="14.00">solucion</text>
</g>
<!-- machine -->
<g id="node2" class="node">
<title>machine</title>
<ellipse fill="none" stroke="black" cx="365.64" cy="-90" rx="50.09" ry="18"/>
<text text-anchor="middle" x="365.64" y="-86.3" font-family="Times,serif" font-size="14.00">machine</text>
</g>
<!-- solucion&#45;&gt;machine -->
<g id="edge1" class="edge">
<title>solucion&#45;&gt;machine</title>
<path fill="none" stroke="red" d="M240.16,-147.67C264.68,-136.6 299.75,-120.76 326.59,-108.64"/>
<polygon fill="red" stroke="red" points="328.03,-111.83 335.71,-104.52 325.15,-105.45 328.03,-111.83"/>
</g>
<!-- tarea -->
<g id="node3" class="node">
<title>tarea</title>
<ellipse fill="none" stroke="black" cx="326.64" cy="-18" rx="35.19" ry="18"/>
<text text-anchor="middle" x="326.64" y="-14.3" font-family="Times,serif" font-size="14.00">tarea</text>
</g>
<!-- machine&#45;&gt;tarea -->
<g id="edge2" class="edge">
<title>machine&#45;&gt;tarea</title>
<path fill="none" stroke="red" d="M356.2,-72.05C351.6,-63.8 345.98,-53.7 340.87,-44.54"/>
<polygon fill="red" stroke="red" points="343.92,-42.82 336,-35.79 337.81,-46.23 343.92,-42.82"/>
</g>
<!-- datos -->
<g id="node4" class="node">
<title>datos</title>
<ellipse fill="none" stroke="black" cx="492.64" cy="-18" rx="36.29" ry="18"/>
<text text-anchor="middle" x="492.64" y="-14.3" font-family="Times,serif" font-size="14.00">datos</text>
</g>
<!-- machine&#45;&gt;datos -->
<g id="edge3" class="edge">
<title>machine&#45;&gt;datos</title>
<path fill="none" stroke="red" d="M391.96,-74.5C411.83,-63.54 439.21,-48.45 460.4,-36.77"/>
<polygon fill="red" stroke="red" points="462.28,-39.73 469.35,-31.84 458.91,-33.6 462.28,-39.73"/>
</g>
<!-- greedy_time -->
<g id="node5" class="node">
<title>greedy_time</title>
<ellipse fill="none" stroke="black" cx="271.64" cy="-306" rx="68.49" ry="18"/>
<text text-anchor="middle" x="271.64" y="-302.3" font-family="Times,serif" font-size="14.00">greedy_time</text>
</g>
<!-- greedy_time&#45;&gt;machine -->
<g id="edge5" class="edge">
<title>greedy_time&#45;&gt;machine</title>
<path fill="none" stroke="red" d="M314.91,-291.83C334,-283.62 354.59,-270.93 365.64,-252 389.94,-210.4 381.52,-151.84 373.43,-118.01"/>
<polygon fill="red" stroke="red" points="376.72,-116.77 370.85,-107.95 369.94,-118.51 376.72,-116.77"/>
</g>
<!-- parallelInterface -->
<g id="node6" class="node">
<title>parallelInterface</title>
<ellipse fill="none" stroke="black" cx="268.64" cy="-234" rx="87.99" ry="18"/>
<text text-anchor="middle" x="268.64" y="-230.3" font-family="Times,serif" font-size="14.00">parallelInterface</text>
</g>
<!-- greedy_time&#45;&gt;parallelInterface -->
<g id="edge4" class="edge">
<title>greedy_time&#45;&gt;parallelInterface</title>
<path fill="none" stroke="red" d="M270.9,-287.7C270.57,-279.98 270.17,-270.71 269.81,-262.11"/>
<polygon fill="red" stroke="red" points="273.3,-261.95 269.38,-252.1 266.31,-262.25 273.3,-261.95"/>
</g>
<!-- parallelInterface&#45;&gt;solucion -->
<g id="edge8" class="edge">
<title>parallelInterface&#45;&gt;solucion</title>
<path fill="none" stroke="red" d="M254.6,-216.05C247.45,-207.42 238.62,-196.76 230.75,-187.27"/>
<polygon fill="red" stroke="red" points="233.23,-184.77 224.16,-179.31 227.84,-189.24 233.23,-184.77"/>
</g>
<!-- parallelInterface&#45;&gt;machine -->
<g id="edge7" class="edge">
<title>parallelInterface&#45;&gt;machine</title>
<path fill="none" stroke="red" d="M280.15,-216.15C297.07,-191.39 328.77,-144.97 348.46,-116.16"/>
<polygon fill="red" stroke="red" points="351.4,-118.06 354.15,-107.82 345.62,-114.11 351.4,-118.06"/>
</g>
<!-- parallelInterface&#45;&gt;tarea -->
<g id="edge6" class="edge">
<title>parallelInterface&#45;&gt;tarea</title>
<path fill="none" stroke="red" d="M271.93,-215.89C277.78,-186.26 290.88,-123.64 306.64,-72 309.33,-63.21 312.72,-53.78 315.94,-45.34"/>
<polygon fill="red" stroke="red" points="319.21,-46.58 319.59,-35.99 312.69,-44.03 319.21,-46.58"/>
</g>
<!-- random -->
<g id="node7" class="node">
<title>random</title>
<ellipse fill="none" stroke="black" cx="496.64" cy="-234" rx="46.29" ry="18"/>
<text text-anchor="middle" x="496.64" y="-230.3" font-family="Times,serif" font-size="14.00">random</text>
</g>
<!-- testing -->
<g id="node8" class="node">
<title>testing</title>
<ellipse fill="none" stroke="black" cx="271.64" cy="-378" rx="43.59" ry="18"/>
<text text-anchor="middle" x="271.64" y="-374.3" font-family="Times,serif" font-size="14.00">testing</text>
</g>
<!-- testing&#45;&gt;solucion -->
<g id="edge10" class="edge">
<title>testing&#45;&gt;solucion</title>
<path fill="none" stroke="red" d="M243.94,-363.85C227.49,-354.75 207.41,-341.2 194.64,-324 174.62,-297.03 176.82,-285.19 171.64,-252 169.18,-236.19 166.65,-231.2 171.64,-216 175.06,-205.58 181.4,-195.52 187.99,-187.02"/>
<polygon fill="red" stroke="red" points="190.88,-189.01 194.56,-179.08 185.49,-184.55 190.88,-189.01"/>
</g>
<!-- testing&#45;&gt;datos -->
<g id="edge9" class="edge">
<title>testing&#45;&gt;datos</title>
<path fill="none" stroke="red" d="M315.12,-375.7C398.05,-370.67 570.64,-346.77 570.64,-235 570.64,-235 570.64,-235 570.64,-161 570.64,-114.35 537.91,-68.55 514.85,-42.07"/>
<polygon fill="red" stroke="red" points="517.34,-39.6 508.05,-34.5 512.13,-44.28 517.34,-39.6"/>
</g>
<!-- testing&#45;&gt;greedy_time -->
<g id="edge11" class="edge">
<title>testing&#45;&gt;greedy_time</title>
<path fill="none" stroke="red" d="M271.64,-359.7C271.64,-351.98 271.64,-342.71 271.64,-334.11"/>
<polygon fill="red" stroke="red" points="275.14,-334.1 271.64,-324.1 268.14,-334.1 275.14,-334.1"/>
</g>
<!-- greedy_TCT -->
<g id="node9" class="node">
<title>greedy_TCT</title>
<ellipse fill="none" stroke="black" cx="65.64" cy="-306" rx="65.79" ry="18"/>
<text text-anchor="middle" x="65.64" y="-302.3" font-family="Times,serif" font-size="14.00">greedy_TCT</text>
</g>
<!-- testing&#45;&gt;greedy_TCT -->
<g id="edge12" class="edge">
<title>testing&#45;&gt;greedy_TCT</title>
<path fill="none" stroke="red" d="M239,-365.91C205.68,-354.58 153.53,-336.86 115.12,-323.81"/>
<polygon fill="red" stroke="red" points="115.77,-320.34 105.18,-320.43 113.52,-326.97 115.77,-320.34"/>
</g>
<!-- multiboot -->
<g id="node10" class="node">
<title>multiboot</title>
<ellipse fill="none" stroke="black" cx="419.64" cy="-306" rx="55.79" ry="18"/>
<text text-anchor="middle" x="419.64" y="-302.3" font-family="Times,serif" font-size="14.00">multiboot</text>
</g>
<!-- testing&#45;&gt;multiboot -->
<g id="edge13" class="edge">
<title>testing&#45;&gt;multiboot</title>
<path fill="none" stroke="red" d="M299.13,-364C321.99,-353.19 354.8,-337.67 380.42,-325.55"/>
<polygon fill="red" stroke="red" points="381.96,-328.7 389.5,-321.26 378.96,-322.37 381.96,-328.7"/>
</g>
<!-- greedy_TCT&#45;&gt;machine -->
<g id="edge18" class="edge">
<title>greedy_TCT&#45;&gt;machine</title>
<path fill="none" stroke="red" d="M69.91,-287.89C79.09,-254.75 103.94,-181.77 152.64,-144 196.6,-109.91 259.67,-97.47 305.78,-93.07"/>
<polygon fill="red" stroke="red" points="306.26,-96.54 315.93,-92.2 305.67,-89.56 306.26,-96.54"/>
</g>
<!-- greedy_TCT&#45;&gt;parallelInterface -->
<g id="edge17" class="edge">
<title>greedy_TCT&#45;&gt;parallelInterface</title>
<path fill="none" stroke="red" d="M104.78,-291.5C136.48,-280.57 181.43,-265.07 216.24,-253.07"/>
<polygon fill="red" stroke="red" points="217.45,-256.36 225.76,-249.79 215.17,-249.74 217.45,-256.36"/>
</g>
<!-- multiboot&#45;&gt;machine -->
<g id="edge15" class="edge">
<title>multiboot&#45;&gt;machine</title>
<path fill="none" stroke="red" d="M419.77,-288C419.48,-258.01 416.58,-194.17 398.64,-144 395.18,-134.3 389.74,-124.51 384.27,-116.02"/>
<polygon fill="red" stroke="red" points="387.15,-114.02 378.64,-107.7 381.35,-117.94 387.15,-114.02"/>
</g>
<!-- multiboot&#45;&gt;parallelInterface -->
<g id="edge14" class="edge">
<title>multiboot&#45;&gt;parallelInterface</title>
<path fill="none" stroke="red" d="M389.09,-290.83C366.85,-280.53 336.44,-266.43 311.73,-254.98"/>
<polygon fill="red" stroke="red" points="313.12,-251.76 302.58,-250.73 310.18,-258.11 313.12,-251.76"/>
</g>
<!-- multiboot&#45;&gt;random -->
<g id="edge16" class="edge">
<title>multiboot&#45;&gt;random</title>
<path fill="none" stroke="red" d="M437.5,-288.76C447.58,-279.6 460.35,-268 471.43,-257.92"/>
<polygon fill="red" stroke="red" points="474.1,-260.22 479.15,-250.91 469.39,-255.04 474.1,-260.22"/>
</g>
</g>
</svg>
